HIERARCHY
ROOT Hips
{
	OFFSET -3.958830 18.904000 13.208200
	CHANNELS 6 Xposition Yposition Zposition Zrotation Yrotation Xrotation 
	JOINT LHipJoint
	{
		OFFSET 0.000000 0.000000 0.000000
		CHANNELS 3 Zrotation Yrotation Xrotation
		JOINT LeftUpLeg
		{
			OFFSET 1.800000 -1.400000 0.085000
			CHANNELS 3 Zrotation Yrotation Xrotation
			JOINT LeftLeg
			{
				OFFSET 2.215000 -6.000000 0.000000
				CHANNELS 3 Zrotation Yrotation Xrotation
				JOINT LeftFoot
				{
					OFFSET 2.500000 -6.900000 0.000000
					CHANNELS 3 Zrotation Yrotation Xrotation
					JOINT LeftToeBase
					{
						OFFSET 0.200000 -0.500000 1.950000
						CHANNELS 3 Zrotation Yrotation Xrotation
						End Site
						{
							OFFSET 0.000000 0.000000 0.000000
						}
					}
				}
			}
		}
	}
	JOINT RHipJoint
	{
		OFFSET 0.000000 0.000000 0.000000
		CHANNELS 3 Zrotation Yrotation Xrotation
		JOINT RightUpLeg
		{
			OFFSET -1.800000 -1.400000 0.085000
			CHANNELS 3 Zrotation Yrotation Xrotation
			JOINT RightLeg
			{
				OFFSET -2.215000 -6.000000 0.000000
				CHANNELS 3 Zrotation Yrotation Xrotation
				JOINT RightFoot
				{
					OFFSET -2.500000 -6.900000 0.000000
					CHANNELS 3 Zrotation Yrotation Xrotation
					JOINT RightToeBase
					{
						OFFSET -0.200000 -0.500000 1.950000
						CHANNELS 3 Zrotation Yrotation Xrotation
						End Site
						{
							OFFSET 0.000000 0.000000 0.000000
						}
					}
				}
			}
		}
	}
	JOINT LowerBack
	{
		OFFSET 0.000000 0.000000 0.000000
		CHANNELS 3 Zrotation Yrotation Xrotation
		JOINT Spine
		{
			OFFSET -0.087000 1.940000 -0.288900
			CHANNELS 3 Zrotation Yrotation Xrotation
			JOINT Spine1
			{
				OFFSET 0.000000 1.950000 0.060000
				CHANNELS 3 Zrotation Yrotation Xrotation
				JOINT Neck
				{
					OFFSET 0.000000 0.000000 0.000000
					CHANNELS 3 Zrotation Yrotation Xrotation
					JOINT Neck1
					{
						OFFSET 0.000000 1.600000 0.340000
						CHANNELS 3 Zrotation Yrotation Xrotation
						JOINT Head
						{
							OFFSET 0.000000 1.667000 -0.240000
							CHANNELS 3 Zrotation Yrotation Xrotation
							End Site
							{
								OFFSET 0.000000 0.000000 0.000000
							}
						}
					}
				}
				JOINT LeftShoulder
				{
					OFFSET 0.000000 0.000000 0.000000
					CHANNELS 3 Zrotation Yrotation Xrotation
					JOINT LeftArm
					{
						OFFSET 2.700000 1.550000 -0.730000
						CHANNELS 3 Zrotation Yrotation Xrotation
						JOINT LeftForeArm
						{
							OFFSET 5.450000 0.000000 0.000000
							CHANNELS 3 Zrotation Yrotation Xrotation
							JOINT LeftHand
							{
								OFFSET 3.450000 0.000000 0.000000
								CHANNELS 3 Zrotation Yrotation Xrotation
								JOINT LeftHandIndex1
								{
									OFFSET 0.750000 0.000000 0.000000
									CHANNELS 3 Zrotation Yrotation Xrotation
									End Site
									{
										OFFSET 0.000000 0.000000 0.000000
									}
								}
							}
						}
					}
				}
				JOINT RightShoulder
				{
					OFFSET 0.000000 0.000000 0.000000
					CHANNELS 3 Zrotation Yrotation Xrotation
					JOINT RightArm
					{
						OFFSET -2.700000 1.550000 -0.730000
						CHANNELS 3 Zrotation Yrotation Xrotation
						JOINT RightForeArm
						{
							OFFSET -5.450000 0.000000 0.000000
							CHANNELS 3 Zrotation Yrotation Xrotation
							JOINT RightHand
							{
								OFFSET -3.450000 0.000000 0.000000
								CHANNELS 3 Zrotation Yrotation Xrotation
								JOINT RightHandIndex1
								{
									OFFSET -0.750000 0.000000 0.000000
									CHANNELS 3 Zrotation Yrotation Xrotation
									End Site
									{
										OFFSET 0.000000 0.000000 0.000000
									}
								}
							}
						}
					}
				}
			}
		}
	}
}
MOTION
Frames: 13
Frame Time: 0.016667
-2.452470 16.333550 -3.332190 -22.613445 -44.616971 8.793861 -15.994810 10.675618 4.521156 20.132963 -0.577127 -41.764382 -16.802990 15.941500 34.692030 -0.154319 9.153988 1.317542 0.459930 0.155990 0.099330 18.151341 -7.110468 4.854495 11.130764 20.966114 -27.878642 11.829653 -29.216921 90.155261 -3.627292 -16.286973 -0.147111 0.149430 0.516660 0.115710 -2.982290 -3.230983 -9.621626 -15.306700 8.151861 39.060912 -3.138445 4.562350 0.365034 -0.871591 -7.879964 -7.322090 -16.850792 14.223899 30.901365 8.829470 7.211870 -18.915840 -14.112768 5.012613 -0.526562 -24.787210 7.087694 -10.707309 134.256692 -24.048107 -65.777380 -3.653627 2.889557 0.862140 0.094860 -0.090410 0.345510 15.689953 3.647407 4.116249 24.927922 -9.606553 -13.404754 101.552026 77.604418 69.961223 3.234991 1.640247 -0.428560 0.536780 0.072440 -0.199690 
-2.476670 16.229430 -3.345840 -21.674181 -42.074440 5.322243 -16.005249 10.337481 4.618693 20.516974 -1.602421 -42.999901 -16.123675 17.977177 40.689362 0.183117 10.091636 1.088422 0.513330 0.319050 0.080090 18.156433 -6.766417 5.079436 6.808828 22.535253 -34.610487 17.019735 -39.083726 94.700529 -4.271539 -18.542552 -0.477513 0.203850 0.555710 0.101340 -3.113398 -3.104236 -9.839755 -16.105676 8.055558 44.941469 -3.711190 3.252517 -1.353043 -0.633404 -7.191217 -5.886823 -14.957856 13.784204 30.376179 6.595790 8.180060 -19.208540 -16.321962 3.689520 -1.300886 -19.946908 4.080568 -10.416294 129.898130 -27.032365 -63.911150 -3.697528 2.769964 0.762210 0.145790 -0.055880 0.451600 17.432721 4.270733 2.623107 22.153784 -11.405193 -17.531182 113.222181 77.044485 90.650785 2.268471 1.763062 -0.371280 0.593780 -0.030640 -0.114860 
-2.509520 16.147050 -3.343430 -20.788803 -37.222310 2.713484 -15.929708 9.997474 4.826161 20.783053 -3.727271 -44.391037 -16.044918 19.246181 45.005987 0.453601 10.700639 0.911964 0.569510 0.469990 0.042870 18.207760 -6.571060 5.226811 1.206964 21.796518 -42.510221 20.942303 -47.198268 96.894146 -4.706624 -20.138159 -0.743326 0.261840 0.531130 0.077830 -3.362223 -2.916844 -9.988437 -15.451975 6.023904 50.689789 -4.668960 0.899549 -1.501823 -1.075331 -7.446793 -5.784930 -15.282427 13.522981 28.604681 7.973280 7.027830 -19.588690 -18.320515 2.208874 -2.174258 -16.724481 -0.567689 -9.873780 122.402192 -31.624435 -61.118572 -3.665138 2.709042 0.669780 0.118970 -0.032780 0.499990 20.310995 4.265650 4.049778 20.345724 -13.366028 -14.979758 168.221356 79.309972 157.623411 1.545834 -1.701147 -0.290630 0.584690 -0.091190 -0.032410 
-2.541450 16.054680 -3.312040 -21.149240 -34.194746 1.412123 -15.919033 9.704590 5.018390 22.199801 -4.641723 -45.276295 -16.717674 20.841577 47.964167 0.613564 11.409061 0.697834 0.569710 0.467830 0.052640 18.235413 -6.295818 5.387051 -3.446698 21.250783 -48.782295 23.478089 -52.042768 97.669503 -4.929513 -20.959246 -0.861282 0.262330 0.506260 0.073060 -3.463428 -2.879912 -10.175900 -14.208204 3.817244 53.768012 -6.046015 -0.682732 -0.131855 -0.553075 -7.700890 -6.640115 -16.146444 13.858556 28.765341 6.151830 7.127270 -19.606970 -20.252343 -0.631219 -2.361935 -15.121166 -3.055521 -10.292337 113.328428 -34.160019 -54.582696 -3.680283 2.595123 0.674150 0.116570 -0.027590 0.494160 21.285505 5.828465 6.088729 20.613861 -12.798063 -12.451585 -147.602074 74.340041 -150.941245 1.763111 -1.931204 -0.291900 0.579480 -0.091940 -0.044480 
-2.515830 15.962230 -3.272590 -22.866888 -30.826175 0.711115 -15.812429 9.350312 5.196732 23.383531 -6.197351 -46.483545 -15.870100 21.322865 51.619481 0.697715 11.933601 0.526668 0.567440 0.452630 0.049790 18.366971 -6.275501 5.512667 -7.443770 19.258051 -53.479133 24.352494 -53.280293 96.539731 -4.928197 -20.961163 -0.900463 0.254550 0.467390 0.066070 -3.824713 -2.412462 -10.277057 -10.315451 -0.765178 58.418757 -8.495607 -3.248570 -0.119309 -0.084256 -9.101283 -7.436334 -19.058719 14.290436 26.770664 6.318200 5.734820 -21.838140 -21.128948 -2.728456 -2.202751 -16.333105 -5.631229 -10.416947 101.901704 -35.219887 -45.307431 -3.660731 2.514801 0.715520 0.061590 -0.013800 0.459890 21.511876 6.651654 7.393529 21.602465 -13.880992 -11.397115 -129.866320 67.563840 -123.803720 1.943130 -1.433210 -0.289340 0.587430 -0.055720 -0.052080 
-2.493950 15.911850 -3.229300 -23.860079 -28.748384 0.116821 -15.758834 9.202588 5.237175 23.787473 -7.204474 -46.820157 -15.060573 21.361880 53.687526 0.750502 12.184998 0.457904 0.582040 0.426730 0.093850 18.459699 -6.231753 5.656153 -11.304014 17.400453 -56.621719 27.001794 -51.478322 91.091956 -4.654979 -20.013302 -0.799412 0.245940 0.427870 0.071630 -4.006178 -2.217696 -10.334242 -8.097752 -3.747389 60.206339 -10.191452 -4.923129 0.215089 0.643132 -9.505113 -8.131921 -20.408397 14.928266 27.107940 5.530740 5.187570 -20.956910 -22.759451 -6.212413 -1.404224 -16.273088 -6.816996 -10.651434 88.488661 -34.680830 -34.656357 -3.674812 2.543179 0.732960 0.035940 -0.007130 0.447230 21.849062 8.981016 8.103845 21.170303 -12.856595 -11.615268 -126.163283 63.725114 -114.009767 1.950063 -1.235849 -0.288580 0.555780 -0.068700 -0.072900 
-2.462600 15.905800 -3.193620 -24.554859 -27.518946 -0.289611 -15.748048 9.214167 5.370385 24.728375 -7.765105 -46.674190 -16.204850 21.760365 53.810972 0.821823 12.321058 0.433837 0.601840 0.446230 0.112290 18.509779 -6.289352 5.574412 -12.646231 15.952526 -57.005734 26.189977 -43.806961 83.947956 -4.109818 -18.132512 -0.510273 0.238090 0.402360 0.085730 -4.026630 -2.218660 -10.341595 -7.158357 -5.156016 60.805856 -10.641846 -5.269400 1.432113 1.212468 -9.146436 -9.368637 -20.440540 14.949575 28.831613 5.066900 5.040880 -20.690920 -24.148577 -10.909477 0.065612 -16.605580 -7.231303 -11.403596 75.872419 -32.033656 -25.856458 -3.694851 2.631001 0.754980 0.017350 0.036190 0.472400 22.158301 12.858850 9.270585 21.810686 -13.190604 -13.487702 -122.753941 59.799153 -105.022144 1.902315 -1.092413 -0.271000 0.543130 -0.104920 -0.064420 
-2.447830 15.901310 -3.175360 -24.498304 -26.870432 -0.321779 -15.785632 9.347610 5.566679 25.351607 -8.331576 -47.039506 -17.357185 22.072552 53.636911 0.819741 12.415141 0.370559 0.612430 0.445250 0.164490 18.497710 -6.361495 5.346890 -12.540022 14.702418 -56.201319 23.299764 -34.737391 76.275427 -3.379151 -15.759420 -0.117791 0.238180 0.341210 0.091730 -3.878589 -2.502557 -10.295400 -7.501599 -5.528060 59.970470 -9.686555 -5.204407 2.643341 1.333452 -9.030901 -10.415194 -21.023423 14.984247 29.898649 3.211100 5.079510 -20.660720 -23.709551 -13.460733 1.385596 -18.190961 -8.853778 -10.106585 58.856084 -24.990227 -15.340530 -3.710846 2.758821 0.766610 0.003930 0.054630 0.426310 21.564252 15.306894 9.541917 21.164369 -12.272825 -14.639837 -120.398674 57.722367 -99.392729 1.848011 -1.025425 -0.257790 0.511620 -0.098950 -0.098630 
-2.449930 15.935490 -3.157280 -24.497125 -26.028039 -0.771514 -15.760234 9.750786 5.726464 25.652655 -8.735085 -46.148074 -18.340894 21.489346 52.116850 0.787414 12.118895 0.434794 0.682670 0.532720 0.251780 18.467200 -6.819360 4.834816 -9.309068 13.470080 -52.233645 17.200992 -23.352316 65.966432 -2.399433 -12.260350 0.632527 0.270080 0.251580 0.108720 -3.707703 -2.639062 -10.055170 -8.267071 -5.384308 60.080127 -8.246388 -5.175887 2.662216 1.267052 -8.344411 -10.582793 -19.344166 14.671114 30.311023 1.456160 6.216210 -21.413920 -24.429922 -14.757344 2.232325 -16.868750 -9.715805 -7.698569 41.330509 -17.889882 -7.781861 -3.657370 2.873645 0.764650 -0.024880 0.117710 0.432070 22.451297 16.360819 9.266051 19.273182 -11.389622 -15.142801 -118.563795 56.856198 -95.909986 1.867595 -0.995654 -0.212710 0.449250 -0.178500 -0.107840 
-2.451140 15.947330 -3.138750 -22.784195 -25.744466 -2.020296 -15.726813 10.344737 5.922998 24.230485 -9.764993 -45.159980 -19.551015 20.944177 50.551945 0.810150 11.877268 0.535474 0.617020 0.459630 0.267430 18.373030 -7.474903 4.139649 -6.616378 11.001456 -47.206652 9.924554 -13.168400 52.560573 -1.312921 -8.225971 1.740573 0.212390 0.263430 0.124260 -3.407734 -2.847523 -9.719096 -11.192924 -3.204166 60.341739 -5.889535 -4.764570 1.332087 1.453701 -6.220465 -10.542500 -14.279485 13.657710 30.915104 -0.166320 8.406270 -20.192450 -26.314055 -15.956054 3.126895 -13.268085 -9.462595 -4.539991 23.764213 -10.425830 -2.907685 -3.708990 2.827899 0.728750 0.020870 0.110020 0.403210 24.039506 16.960090 8.953447 15.560089 -11.800582 -15.086912 -115.233556 57.388993 -90.914768 1.887011 -0.763852 -0.214970 0.410140 -0.178640 -0.121370 
-2.473770 15.950430 -3.103200 -21.196938 -25.277866 -2.205166 -15.655321 10.784097 6.200734 23.213176 -10.484554 -44.833845 -21.265473 20.644636 48.581943 0.789169 11.738794 0.604287 0.498800 0.299350 0.193680 18.308858 -8.186467 3.398235 -4.641952 7.947345 -42.294656 4.555411 -6.866237 36.714338 -0.487671 -4.659512 2.917469 0.129370 0.358300 0.163440 -3.242409 -2.791153 -9.411708 -12.855489 -2.529453 58.217774 -5.378166 -5.289094 -0.183188 1.876284 -4.246583 -10.656765 -10.027802 14.078407 31.963197 -0.673320 10.944090 -16.186420 -28.156867 -16.418744 4.082769 -10.883193 -6.987022 -2.033406 10.090134 -6.186226 -1.181396 -3.774727 2.733340 0.702540 0.120720 0.034100 0.378170 25.126313 16.463396 8.373944 13.254860 -9.882879 -13.683964 -112.122892 60.152365 -88.337073 1.836772 -0.370875 -0.256210 0.367790 -0.105840 -0.140000 
-2.493300 15.939350 -3.058420 -19.546906 -25.110883 -1.289183 -15.676699 11.017654 6.411607 21.771079 -11.091782 -46.009093 -21.847876 20.458184 47.895307 0.758269 11.678544 0.620312 0.439370 0.243280 0.175510 18.229790 -8.457606 2.949904 -4.392689 5.620027 -39.391938 2.150909 -3.862306 21.625580 -0.063387 -2.274840 3.765051 0.117450 0.414750 0.168730 -3.017189 -3.012859 -9.263247 -13.631410 -2.152531 54.111920 -5.022646 -5.497099 -0.601671 2.222498 -3.769488 -10.041925 -8.777027 14.448803 31.725711 -0.542660 11.773970 -15.349920 -28.875185 -15.410376 4.053022 -12.654797 -6.643804 -0.318462 1.893584 -1.717836 -0.977637 -3.864036 2.588143 0.659320 0.181100 -0.014410 0.324970 25.322921 15.292782 7.122034 10.555493 -8.287312 -12.557544 -105.743403 64.035085 -80.137408 1.583466 0.570336 -0.275470 0.390610 -0.036820 -0.152280 
-2.489060 15.939350 -3.014320 -18.507908 -23.728202 0.325571 -15.741153 11.067452 6.478623 19.454418 -12.083865 -48.134058 -19.836009 19.490557 49.080301 0.654898 11.540763 0.674784 0.477880 0.266120 0.225370 18.172191 -8.376485 2.871471 -5.525956 4.645968 -38.692246 1.946365 -2.972820 13.441897 0.020909 -1.550839 4.030272 0.160760 0.437550 0.165980 -2.829018 -3.339070 -9.280558 -12.886202 -2.906790 49.846625 -5.311545 -6.125277 -0.882582 2.904173 -4.119415 -8.839825 -9.208469 14.715836 31.484491 -0.562090 11.709040 -16.212640 -28.431139 -13.927096 3.954362 -17.073183 -6.643907 0.752260 -2.230846 3.052043 -1.273265 -3.896834 2.493790 0.686620 0.195480 -0.017450 0.332970 23.877552 14.643911 4.258814 10.015137 -6.640877 -14.963617 -91.664197 72.791229 -64.207276 0.619182 2.164644 -0.312100 0.445330 -0.042350 -0.175300 
